# xmcd
#
# Track frame offsets:
# 150
# 15102
# 30577
# 45677
# 60157
# 76307
# 90372
# 107752
# 125325
# 143967
# 165580
# 179287
# 193600
# 211595
# 228907
#
# Disc length: 3293 seconds
#
#
# Revision: 0
# Processed by: cddbd v1.5.1PL0 Copyright (c) Steve Scherf et al.
# Submitted via: FreeRIP 2.942 
#
DISCID=aa0cdb0f
DTITLE=Various Artist - Bundaberg Rum Bull Riding Songs [Disc One - Country]
DYEAR=2000
DGENRE=Country
TTITLE0=Troy Cassar Daley - V8 Town
TTITLE1=Dixie Chicks - Tonight The Heartache's On Me
TTITLE2=The Fabulous Thunderbirds - Tuff Enuff
TTITLE3=Montgomery Gentry - Hillbilly Shoes
TTITLE4=Charlie Daniels Band - The Devil Went Down To Georgia
TTITLE5=The Stars - Might Rock
TTITLE6=The Dingos - Way Out West
TTITLE7=The Black Sorrows - Harley and Rose
TTITLE8=Cold Chisel - Khe Sahn
TTITLE9=Shawn Mullins - Shimmer
TTITLE10=Johnny Cash. Willie Nelson, Waylon Jennings and Kris Kristofferson - Highwayman
TTITLE11=Joe Diffie - Show Me A Woman
TTITLE12=Stevie Ray Vaughan - Cold Shot
TTITLE13=Chain - Black And Blue
TTITLE14=The Choir Boys - Never Gonna Die
EXTD=
EXTT0=
EXTT1=
EXTT2=
EXTT3=
EXTT4=
EXTT5=
EXTT6=
EXTT7=
EXTT8=
EXTT9=
EXTT10=
EXTT11=
EXTT12=
EXTT13=
EXTT14=
PLAYORDER=
